<svg width="354" height="224" viewBox="0 0 354 224" fill="none" xmlns="http://www.w3.org/2000/svg">
<g clip-path="url(#clip0)">
<path d="M83.6803 195.197C129.896 195.197 167.361 157.692 167.361 111.428C167.361 65.1634 129.896 27.6586 83.6803 27.6586C37.4649 27.6586 0 65.1634 0 111.428C0 157.692 37.4649 195.197 83.6803 195.197Z" fill="url(#paint0_linear)"/>
<path d="M281.114 157.275C305.948 157.275 326.079 137.123 326.079 112.263C326.079 87.4035 305.948 67.2509 281.114 67.2509C256.281 67.2509 236.15 87.4035 236.15 112.263C236.15 137.123 256.281 157.275 281.114 157.275Z" fill="url(#paint1_linear)"/>
<path d="M342.021 124.865C348.632 124.865 353.992 119.499 353.992 112.881C353.992 106.263 348.632 100.897 342.021 100.897C335.409 100.897 330.05 106.263 330.05 112.881C330.05 119.499 335.409 124.865 342.021 124.865Z" fill="url(#paint2_linear)"/>
<path d="M292.81 111.996C292.8 139.689 282.538 166.395 264.006 186.955C245.474 207.516 219.988 220.47 192.471 223.317C164.954 226.164 137.36 218.7 115.02 202.368C92.6792 186.036 77.1782 161.995 71.5115 134.89C65.8447 107.784 70.4144 79.5379 84.3377 55.6085C98.2609 31.679 120.55 13.7645 146.897 5.32614C173.245 -3.11224 201.782 -1.4756 226.995 9.91983C252.207 21.3153 272.306 41.6608 283.409 67.0255C289.624 81.2007 292.826 96.5152 292.81 111.996Z" fill="url(#paint3_linear)"/>
<path d="M283.375 67.0255L281.215 67.7019C281.215 67.7019 260.126 64.2446 238.428 92.8719C238.428 92.8719 216.738 121.833 179.74 100.388C179.74 100.388 168.754 93.707 156.608 72.3117C156.608 72.3117 138.388 44.2355 110.067 29.4792L106.78 28.1096C119.981 16.4189 135.755 8.01625 152.815 3.58639C169.876 -0.84346 187.741 -1.17512 204.954 2.61845C222.167 6.41202 238.242 14.2235 251.867 25.4161C265.492 36.6088 276.282 50.8659 283.358 67.0255H283.375Z" fill="url(#paint4_linear)"/>
<path d="M282.8 158.311C275.453 174.501 264.361 188.708 250.442 199.757C236.522 210.805 220.175 218.377 202.752 221.846C185.33 225.315 167.332 224.582 150.249 219.707C133.166 214.832 117.487 205.955 104.511 193.811L108.598 192.742C142.718 180.859 166.435 140.072 166.435 140.072C170.212 132.932 175.944 127.019 182.96 123.025C189.975 119.031 197.983 117.123 206.043 117.524C231.495 115.754 244.225 137.792 244.225 137.792C257.806 160.95 281.515 156.891 281.515 156.891L282.8 158.311Z" fill="url(#paint5_linear)"/>
<path d="M283.375 87.6859C278.738 87.6876 274.205 89.0658 270.349 91.6462C266.494 94.2267 263.49 97.8935 261.716 102.183C259.943 106.473 259.479 111.192 260.385 115.746C261.291 120.299 263.525 124.481 266.805 127.763C270.085 131.045 274.263 133.28 278.812 134.185C283.36 135.09 288.075 134.625 292.359 132.848C296.644 131.071 300.306 128.062 302.882 124.202C305.458 120.342 306.833 115.803 306.833 111.161C306.833 108.077 306.226 105.024 305.047 102.175C303.868 99.3267 302.14 96.7385 299.962 94.5586C297.784 92.3786 295.198 90.6497 292.352 89.4705C289.506 88.2912 286.455 87.6848 283.375 87.6859ZM285.294 132.681V131.011C285.294 130.502 285.092 130.013 284.732 129.653C284.372 129.293 283.884 129.09 283.375 129.09C282.866 129.09 282.378 129.293 282.018 129.653C281.659 130.013 281.456 130.502 281.456 131.011V132.681C276.407 132.225 271.678 130.006 268.098 126.412C264.517 122.818 262.312 118.079 261.869 113.023H263.537C264.046 113.023 264.534 112.821 264.894 112.46C265.254 112.1 265.456 111.612 265.456 111.102C265.456 110.593 265.254 110.104 264.894 109.744C264.534 109.384 264.046 109.182 263.537 109.182H261.869C262.341 104.149 264.557 99.4398 268.133 95.8708C271.709 92.3017 276.419 90.0975 281.448 89.6401V91.2268C281.448 91.7362 281.65 92.2247 282.01 92.5849C282.37 92.9452 282.858 93.1475 283.367 93.1475C283.876 93.1475 284.364 92.9452 284.723 92.5849C285.083 92.2247 285.285 91.7362 285.285 91.2268V89.6401C290.315 90.0944 295.028 92.2976 298.604 95.8672C302.181 99.4369 304.396 104.148 304.865 109.182H303.196C302.687 109.182 302.199 109.384 301.839 109.744C301.48 110.104 301.277 110.593 301.277 111.102C301.277 111.612 301.48 112.1 301.839 112.46C302.199 112.821 302.687 113.023 303.196 113.023H304.865C304.418 118.071 302.215 122.803 298.64 126.391C295.065 129.979 290.344 132.197 285.302 132.656L285.294 132.681Z" fill="white"/>
<path d="M293.519 99.6947L283.509 110.167H283.459C283.337 110.154 283.214 110.154 283.092 110.167L274.749 103.845C274.616 103.745 274.465 103.672 274.303 103.63C274.142 103.588 273.974 103.579 273.809 103.602C273.644 103.625 273.485 103.681 273.342 103.766C273.198 103.85 273.073 103.962 272.973 104.096C272.872 104.229 272.799 104.381 272.758 104.542C272.716 104.704 272.706 104.872 272.73 105.037C272.753 105.202 272.808 105.361 272.893 105.505C272.978 105.649 273.09 105.774 273.223 105.875L281.565 112.188C281.586 112.691 281.806 113.164 282.176 113.505C282.546 113.846 283.036 114.025 283.538 114.004C284.04 113.983 284.513 113.763 284.854 113.393C285.194 113.023 285.373 112.532 285.352 112.029C285.352 111.979 285.352 111.929 285.352 111.879L295.363 101.407C295.594 101.164 295.72 100.84 295.712 100.504C295.704 100.169 295.563 99.851 295.321 99.6196C295.079 99.3881 294.755 99.2625 294.42 99.2703C294.085 99.2782 293.767 99.4188 293.536 99.6613L293.519 99.6947Z" fill="white"/>
<path d="M29.4338 100.401H23.4221V120.162C23.4221 121.3 23.1685 122.148 22.6614 122.704C22.1542 123.248 21.4986 123.521 20.6946 123.521C19.8782 123.521 19.2102 123.242 18.6907 122.686C18.1835 122.129 17.9299 121.288 17.9299 120.162V100.401H11.9182C10.9781 100.401 10.2792 100.197 9.82153 99.7892C9.36385 99.3686 9.13501 98.8182 9.13501 98.1378C9.13501 97.4327 9.37004 96.8761 9.84009 96.4679C10.3225 96.0597 11.0152 95.8556 11.9182 95.8556H29.4338C30.3863 95.8556 31.0914 96.0659 31.5491 96.4864C32.0191 96.907 32.2542 97.4575 32.2542 98.1378C32.2542 98.8182 32.0191 99.3686 31.5491 99.7892C31.079 100.197 30.3739 100.401 29.4338 100.401ZM39.7131 105.801V120.441C39.7131 121.455 39.4719 122.222 38.9895 122.741C38.5071 123.261 37.8948 123.521 37.1526 123.521C36.4104 123.521 35.8043 123.255 35.3342 122.723C34.8765 122.191 34.6477 121.43 34.6477 120.441V105.949C34.6477 104.947 34.8765 104.193 35.3342 103.686C35.8043 103.179 36.4104 102.925 37.1526 102.925C37.8948 102.925 38.5071 103.179 38.9895 103.686C39.4719 104.193 39.7131 104.898 39.7131 105.801ZM37.2083 100.568C36.5032 100.568 35.8971 100.352 35.3899 99.9191C34.8951 99.4861 34.6477 98.8738 34.6477 98.0821C34.6477 97.3647 34.9013 96.7771 35.4084 96.3195C35.928 95.8494 36.5279 95.6144 37.2083 95.6144C37.8639 95.6144 38.4452 95.8247 38.9524 96.2452C39.4596 96.6658 39.7131 97.2781 39.7131 98.0821C39.7131 98.8614 39.4657 99.4738 38.9709 99.9191C38.4762 100.352 37.8886 100.568 37.2083 100.568ZM61.8118 113.594V120.329C61.8118 121.393 61.5706 122.191 61.0881 122.723C60.6057 123.255 59.9687 123.521 59.177 123.521C58.4101 123.521 57.7854 123.255 57.303 122.723C56.8329 122.191 56.5979 121.393 56.5979 120.329V112.258C56.5979 110.984 56.5546 109.994 56.468 109.289C56.3814 108.584 56.1464 108.009 55.7629 107.564C55.3795 107.106 54.7734 106.877 53.9446 106.877C52.287 106.877 51.1923 107.446 50.6604 108.584C50.1409 109.722 49.8811 111.355 49.8811 113.483V120.329C49.8811 121.381 49.6399 122.179 49.1575 122.723C48.6874 123.255 48.0627 123.521 47.2834 123.521C46.5165 123.521 45.8857 123.255 45.3909 122.723C44.9084 122.179 44.6672 121.381 44.6672 120.329V105.838C44.6672 104.886 44.8837 104.162 45.3167 103.667C45.762 103.172 46.3433 102.925 47.0608 102.925C47.7535 102.925 48.3287 103.16 48.7864 103.63C49.2564 104.088 49.4915 104.725 49.4915 105.541V106.024C50.3697 104.972 51.3098 104.199 52.3118 103.704C53.3137 103.209 54.427 102.962 55.6516 102.962C56.9257 102.962 58.0204 103.216 58.9358 103.723C59.8512 104.23 60.6057 104.997 61.1995 106.024C62.053 104.984 62.9683 104.218 63.9456 103.723C64.9228 103.216 66.0051 102.962 67.1926 102.962C68.578 102.962 69.7717 103.234 70.7737 103.778C71.7756 104.323 72.524 105.102 73.0188 106.116C73.4517 107.032 73.6682 108.473 73.6682 110.44V120.329C73.6682 121.393 73.427 122.191 72.9446 122.723C72.4622 123.255 71.8251 123.521 71.0334 123.521C70.2665 123.521 69.6357 123.255 69.1409 122.723C68.6584 122.179 68.4172 121.381 68.4172 120.329V111.813C68.4172 110.724 68.3678 109.852 68.2688 109.196C68.1822 108.541 67.9348 107.99 67.5266 107.545C67.1184 107.1 66.4999 106.877 65.6711 106.877C65.0032 106.877 64.3661 107.075 63.76 107.471C63.1663 107.867 62.7024 108.399 62.3684 109.067C61.9973 109.92 61.8118 111.429 61.8118 113.594ZM92.7239 114.466H82.8157C82.828 115.616 83.0569 116.631 83.5022 117.509C83.9599 118.387 84.5598 119.049 85.302 119.494C86.0566 119.94 86.8853 120.162 87.7883 120.162C88.3944 120.162 88.9449 120.094 89.4397 119.958C89.9469 119.81 90.4355 119.587 90.9055 119.29C91.3756 118.981 91.8085 118.653 92.2043 118.307C92.6002 117.96 93.1135 117.49 93.7444 116.897C94.0042 116.674 94.3752 116.563 94.8577 116.563C95.3772 116.563 95.7978 116.705 96.1194 116.989C96.441 117.274 96.6018 117.676 96.6018 118.195C96.6018 118.653 96.4224 119.191 96.0637 119.81C95.705 120.416 95.1607 121.003 94.4309 121.572C93.7135 122.129 92.8043 122.593 91.7034 122.964C90.6148 123.335 89.3593 123.521 87.9368 123.521C84.6835 123.521 82.1539 122.593 80.3479 120.737C78.5419 118.882 77.6389 116.365 77.6389 113.186C77.6389 111.689 77.8616 110.304 78.3069 109.029C78.7522 107.743 79.4016 106.642 80.2551 105.727C81.1086 104.811 82.1601 104.112 83.4094 103.63C84.6588 103.135 86.0442 102.888 87.5657 102.888C89.5448 102.888 91.2395 103.308 92.6497 104.15C94.0722 104.978 95.136 106.054 95.8411 107.378C96.5461 108.702 96.8987 110.05 96.8987 111.423C96.8987 112.697 96.5338 113.526 95.804 113.909C95.0741 114.28 94.0474 114.466 92.7239 114.466ZM82.8157 111.59H92.0002C91.8765 109.858 91.4065 108.566 90.5901 107.712C89.7861 106.846 88.7222 106.413 87.3987 106.413C86.137 106.413 85.0979 106.852 84.2815 107.731C83.4775 108.596 82.9889 109.883 82.8157 111.59ZM105.341 105.764V106.376C106.294 105.201 107.283 104.341 108.31 103.797C109.337 103.24 110.499 102.962 111.798 102.962C113.357 102.962 114.792 103.364 116.103 104.168C117.414 104.972 118.447 106.147 119.201 107.693C119.968 109.24 120.352 111.07 120.352 113.186C120.352 114.744 120.129 116.179 119.684 117.49C119.251 118.789 118.651 119.884 117.884 120.775C117.117 121.653 116.208 122.333 115.156 122.816C114.117 123.286 112.998 123.521 111.798 123.521C110.351 123.521 109.132 123.23 108.143 122.649C107.166 122.067 106.232 121.214 105.341 120.088V127.695C105.341 129.922 104.531 131.035 102.91 131.035C101.958 131.035 101.327 130.745 101.018 130.163C100.709 129.594 100.554 128.759 100.554 127.658V105.801C100.554 104.836 100.764 104.119 101.185 103.649C101.605 103.166 102.181 102.925 102.91 102.925C103.628 102.925 104.209 103.172 104.655 103.667C105.112 104.15 105.341 104.848 105.341 105.764ZM115.268 113.13C115.268 111.794 115.064 110.65 114.656 109.697C114.247 108.733 113.678 107.997 112.948 107.489C112.231 106.97 111.433 106.71 110.555 106.71C109.157 106.71 107.976 107.261 107.011 108.361C106.059 109.462 105.582 111.083 105.582 113.223C105.582 115.239 106.059 116.81 107.011 117.936C107.963 119.049 109.145 119.606 110.555 119.606C111.396 119.606 112.175 119.364 112.893 118.882C113.61 118.387 114.185 117.651 114.618 116.674C115.051 115.697 115.268 114.515 115.268 113.13ZM124.415 120.441V98.4718C124.415 97.4575 124.638 96.6905 125.083 96.171C125.541 95.6515 126.153 95.3917 126.92 95.3917C127.687 95.3917 128.306 95.6515 128.776 96.171C129.246 96.6782 129.481 97.4451 129.481 98.4718V120.441C129.481 121.467 129.24 122.24 128.757 122.76C128.287 123.267 127.675 123.521 126.92 123.521C126.178 123.521 125.572 123.255 125.102 122.723C124.644 122.191 124.415 121.43 124.415 120.441ZM147.534 120.663C146.31 121.616 145.122 122.333 143.972 122.816C142.834 123.286 141.554 123.521 140.131 123.521C138.832 123.521 137.688 123.267 136.698 122.76C135.721 122.24 134.967 121.541 134.435 120.663C133.903 119.785 133.637 118.832 133.637 117.806C133.637 116.42 134.076 115.239 134.954 114.262C135.833 113.285 137.039 112.629 138.573 112.295C138.894 112.221 139.692 112.054 140.966 111.794C142.24 111.534 143.329 111.299 144.232 111.089C145.147 110.866 146.137 110.6 147.2 110.291C147.139 108.955 146.866 107.978 146.384 107.359C145.914 106.729 144.931 106.413 143.434 106.413C142.147 106.413 141.176 106.593 140.521 106.951C139.878 107.31 139.321 107.848 138.851 108.566C138.393 109.283 138.065 109.759 137.867 109.994C137.682 110.217 137.274 110.328 136.643 110.328C136.074 110.328 135.579 110.149 135.158 109.79C134.75 109.419 134.546 108.949 134.546 108.38C134.546 107.489 134.862 106.623 135.492 105.782C136.123 104.941 137.107 104.248 138.443 103.704C139.779 103.16 141.442 102.888 143.434 102.888C145.66 102.888 147.411 103.154 148.685 103.686C149.959 104.205 150.856 105.034 151.375 106.172C151.907 107.31 152.173 108.819 152.173 110.699C152.173 111.887 152.167 112.895 152.155 113.724C152.155 114.553 152.148 115.474 152.136 116.488C152.136 117.441 152.291 118.437 152.6 119.476C152.921 120.502 153.082 121.164 153.082 121.461C153.082 121.981 152.835 122.457 152.34 122.89C151.858 123.31 151.307 123.521 150.689 123.521C150.169 123.521 149.656 123.279 149.149 122.797C148.642 122.302 148.103 121.591 147.534 120.663ZM147.2 113.334C146.458 113.606 145.376 113.897 143.953 114.206C142.543 114.503 141.566 114.726 141.022 114.874C140.477 115.01 139.958 115.289 139.463 115.709C138.968 116.117 138.721 116.693 138.721 117.435C138.721 118.202 139.012 118.857 139.593 119.401C140.174 119.933 140.935 120.199 141.875 120.199C142.877 120.199 143.799 119.983 144.64 119.55C145.493 119.105 146.118 118.536 146.514 117.843C146.972 117.076 147.2 115.814 147.2 114.058V113.334ZM161.933 105.727V106.339C162.823 105.164 163.795 104.304 164.846 103.76C165.91 103.203 167.128 102.925 168.501 102.925C169.837 102.925 171.031 103.216 172.082 103.797C173.134 104.378 173.919 105.201 174.439 106.265C174.773 106.883 174.989 107.551 175.088 108.269C175.187 108.986 175.237 109.901 175.237 111.015V120.441C175.237 121.455 175.002 122.222 174.531 122.741C174.074 123.261 173.474 123.521 172.732 123.521C171.977 123.521 171.365 123.255 170.895 122.723C170.425 122.191 170.19 121.43 170.19 120.441V111.998C170.19 110.328 169.955 109.054 169.485 108.176C169.027 107.285 168.105 106.84 166.72 106.84C165.817 106.84 164.994 107.112 164.252 107.656C163.51 108.188 162.966 108.924 162.619 109.864C162.372 110.619 162.248 112.029 162.248 114.095V120.441C162.248 121.467 162.007 122.24 161.525 122.76C161.055 123.267 160.442 123.521 159.688 123.521C158.958 123.521 158.358 123.255 157.888 122.723C157.418 122.191 157.183 121.43 157.183 120.441V105.801C157.183 104.836 157.393 104.119 157.814 103.649C158.234 103.166 158.809 102.925 159.539 102.925C159.985 102.925 160.387 103.03 160.745 103.24C161.104 103.451 161.389 103.766 161.599 104.187C161.822 104.607 161.933 105.121 161.933 105.727Z" fill="white"/>
</g>
<defs>
<linearGradient id="paint0_linear" x1="26.6199" y1="105.566" x2="125.702" y2="115.716" gradientUnits="userSpaceOnUse">
<stop offset="0.03" stop-color="#7F3F98"/>
<stop offset="0.96" stop-color="#21409A"/>
</linearGradient>
<linearGradient id="paint1_linear" x1="34013.3" y1="12414.1" x2="29060" y2="12065.5" gradientUnits="userSpaceOnUse">
<stop offset="0.03" stop-color="#7F3F98"/>
<stop offset="0.96" stop-color="#21409A"/>
</linearGradient>
<linearGradient id="paint2_linear" x1="345.149" y1="119.812" x2="335.129" y2="97.64" gradientUnits="userSpaceOnUse">
<stop offset="0.03" stop-color="#6CC9CF"/>
<stop offset="0.15" stop-color="#66B9CE"/>
<stop offset="0.45" stop-color="#5894CB"/>
<stop offset="0.7" stop-color="#4F7EC9"/>
<stop offset="0.85" stop-color="#4C76C8"/>
</linearGradient>
<linearGradient id="paint3_linear" x1="109.933" y1="45.2543" x2="267.607" y2="193.226" gradientUnits="userSpaceOnUse">
<stop offset="0.03" stop-color="#7F3F98"/>
<stop offset="0.85" stop-color="#21409A"/>
</linearGradient>
<linearGradient id="paint4_linear" x1="202.425" y1="76.786" x2="194.598" y2="-20.0521" gradientUnits="userSpaceOnUse">
<stop stop-color="#6CC9CF"/>
<stop offset="1" stop-color="#4C76C8"/>
</linearGradient>
<linearGradient id="paint5_linear" x1="208.782" y1="149.659" x2="240.578" y2="223.994" gradientUnits="userSpaceOnUse">
<stop stop-color="#6CC9CF"/>
<stop offset="1" stop-color="#4C76C8"/>
</linearGradient>
<clipPath id="clip0">
<rect width="354" height="224" fill="white"/>
</clipPath>
</defs>
</svg>
